<svg xmlns="http://www.w3.org/2000/svg" enable-background="new 0 0 47.5 47.5" viewBox="0 0 47.5 47.5"><defs><clipPath id="a"><path d="M0 38h38V0H0v38Z"/></clipPath></defs><g clip-path="url(#a)" transform="matrix(1.25 0 0 -1.25 0 47.5)"><path fill="#d99e82" d="M0 0c-1.956.416-2.372-1.54-2.372-1.54l-3.097-11.569a26.6 26.6 0 0 1-1.305-.107L-8.835-2.704S-9.023-.713-11.015-.9c-1.991-.188-1.803-2.179-1.803-2.179l2.175-11.974h8.23c.208 0 .411-.022.607-.062L1.54-2.372S1.956-.415 0 0" transform="translate(22.413 34.053)"/><path fill="#d99e82" d="M0 0a1.916 1.916 0 0 0-1.916-1.917h-.168A1.916 1.916 0 0 0-4 0v4.166c0 1.059.857 1.917 1.916 1.917h.168A1.916 1.916 0 0 0 0 4.166V0Z" transform="translate(31 14.917)"/><path fill="#d99e82" d="M0 0a2 2 0 0 1-2-2v-2.778C-1.391-5.327-1-6.114-1-7c0-.753-.287-1.433-.745-1.959A1.994 1.994 0 0 1 0-10a2 2 0 0 1 2 2v6a2 2 0 0 1-2 2" transform="translate(24 23)"/><path fill="#d99e82" d="M0 0h-.125a2.93 2.93 0 0 0-2.45 1.322 3.039 3.039 0 0 0-.431-.497C-3.055.779-3.108.74-3.161.697A3.057 3.057 0 0 0-3.739.32a2.993 2.993 0 0 0-.436-.172c-.067-.02-.131-.045-.2-.061A2.945 2.945 0 0 0-5.062 0c-.237 0-.461.036-.681.089-.076.017-.149.042-.223.066a2.97 2.97 0 0 0-.395.161c-.082.04-.163.077-.241.124a3.077 3.077 0 0 0-.99.959l.003.003C-7.79 1.287-8.063 1-9.063 1H-11.6c1.809-1.365 3.037-3.99 3.037-7a.5.5 0 1 0-1 0c0 3.859-2.187 7-4.875 7h-.125a.5.5 0 0 0 0 1h5.5a2 2 0 1 1 0 4h-7.999c-.033 0-.063-.008-.095-.01a1.973 1.973 0 0 1-.765-.191 2.38 2.38 0 0 1-.326-.196 2.243 2.243 0 0 1-.282-.254 1.9 1.9 0 0 1-.234-.31 2.17 2.17 0 0 1-.173-.361c-.011-.032-.028-.06-.039-.093L-20.062 1c-.103-.335-.479-1.871-.411-2.191C-20.473-6-15.777-11-10.063-11-3.525-11 1.781-5.769 1.924.734A2.917 2.917 0 0 0 0 0" transform="translate(29.063 12)"/></g></svg>